<svg width="30" height="45" viewBox="0 0 30 45" fill="none" xmlns="http://www.w3.org/2000/svg">
<g clip-path="url(#clip0_1_460)">
<path d="M6.33882 3.49908C7.63188 4.17599 9.06099 5.01423 10.2128 5.94917C12.2564 7.608 14.2831 9.47811 16.0251 11.3493C17.2018 12.6133 18.7286 14.5315 19.5627 15.9424C20.6728 17.8201 21.3303 19.1356 21.9395 21.1986C22.7978 24.105 22.6794 27.0877 21.8077 29.8997C20.5252 34.0366 16.4205 37.498 12.3188 40.3077C9.10994 42.5056 4.79581 43.9435 1.00533 44.9997L0.613665 44.1931C4.36948 43.1471 8.35027 41.75 11.4255 39.641C15.3815 36.9278 19.0355 33.619 20.6117 29.6763C21.5717 27.2762 21.7945 24.6429 21.2908 22.0928C20.8496 19.8589 19.7403 17.6201 18.6596 15.5846C17.7712 13.9112 16.7354 12.6077 15.4719 11.2347C13.8699 9.49388 12.1095 7.79618 10.2382 6.24602C9.0268 5.2426 7.40675 4.33671 6.10562 3.65562L6.33882 3.49908Z" fill="#E9CA07"/>
<path d="M7.9816 42.5344C7.9816 42.5344 10.644 41.8784 12.7568 42.0716C16.1112 42.3784 16.4204 44.0014 16.4204 44.0014C16.4204 44.0014 15.0747 44.6525 12.1884 44.4051C8.80711 44.1152 7.98167 42.5344 7.98167 42.5344L7.9816 42.5344Z" fill="#E9CA07"/>
<path d="M12.5155 40.1106C12.5155 40.1106 14.7592 39.2812 16.8865 39.2935C20.5693 39.3147 20.7901 40.8393 20.7901 40.8393C20.7901 40.8393 19.4571 41.5888 16.5075 41.558C13.1061 41.5225 12.5155 40.1106 12.5155 40.1106Z" fill="#E9CA07"/>
<path d="M15.8695 37.5616C15.8695 37.5616 18.003 36.1044 20.0665 35.7014C23.639 35.0037 24.8222 36.6238 24.8222 36.6238C24.8222 36.6238 23.4943 37.8655 20.6287 38.4108C17.3242 39.0397 15.8695 37.5616 15.8695 37.5616Z" fill="#E9CA07"/>
<path d="M19.6571 33.6352C19.6571 33.6352 21.4816 32.1363 23.9792 31.5383C27.2386 30.7578 28.7706 32.2901 28.8153 32.3284C28.8153 32.3284 27.4797 33.6386 24.6932 34.2129C20.9557 34.9833 19.6571 33.6352 19.6571 33.6352Z" fill="#E9CA07"/>
<path d="M21.4612 30.5108C21.4612 30.5108 23.1604 28.4941 25.6948 27.5423C28.1568 26.6171 29.9554 27.405 30 27.4359C30 27.4359 28.7353 29.2372 26.4085 30.1003C23.2472 31.2731 21.4608 30.5106 21.4608 30.5106L21.4612 30.5108Z" fill="#E9CA07"/>
<path d="M22.0086 27.7688C22.9155 27.1038 22.9831 25.2965 24.2794 23.8299C26.0879 21.7838 29.0709 21.9321 29.1156 21.9514C29.1156 21.9514 28.7962 24.5005 26.5347 26.0413C24.1313 27.6786 22.0087 27.769 22.0087 27.769L22.0086 27.7688Z" fill="#E9CA07"/>
<path d="M22.2592 23.4721C22.2592 23.4721 22.1712 21.2565 22.9208 19.5739C23.9666 17.2268 26.8215 16.7661 26.8711 16.7753C26.8711 16.7753 27.3341 19.285 25.6792 21.2387C23.9205 23.3149 22.2592 23.4721 22.2592 23.4721L22.2592 23.4721Z" fill="#E9CA07"/>
<path d="M21.0502 19.3197C21.0502 19.3197 20.4808 17.4597 20.7693 15.6928C21.2041 13.0299 23.8629 12.4662 23.9137 12.4701C23.9137 12.4701 24.8252 14.9365 23.5285 17.0481C22.1505 19.2922 21.0502 19.3197 21.0502 19.3197Z" fill="#E9CA07"/>
<path d="M18.7078 14.8615C18.7078 14.8615 17.7819 13.179 17.9005 11.4004C18.0652 8.93185 20.2114 7.88901 20.2623 7.88757C20.2623 7.88757 22.3316 9.34174 21.1431 12.4719C20.4222 14.3706 18.7078 14.8616 18.7078 14.8616L18.7078 14.8615Z" fill="#E9CA07"/>
<path d="M15.7279 11.196C15.7279 11.196 14.3519 9.54397 13.9712 7.78778C13.6138 6.13904 14.4721 4.34281 14.6637 4.17773C14.6637 4.17773 16.9028 4.94468 16.8189 7.88807C16.7625 9.86773 15.7279 11.196 15.7279 11.196Z" fill="#E9CA07"/>
<path d="M12.0671 7.659C12.0671 7.659 10.4264 6.2973 9.99904 4.43541C9.64532 2.89248 10.0019 1.21579 10.3747 0.797302C10.3747 0.797302 12.5147 1.83359 12.6702 4.45432C12.7876 6.43233 12.2368 7.37378 12.0671 7.65922L12.0671 7.659Z" fill="#E9CA07"/>
<path d="M9.41138 5.48972C9.41138 5.48972 6.28455 5.57777 4.7305 4.87457C2.99097 4.08745 1.28391 2.37894 1.14921 1.88018C1.14921 1.88018 3.88787 0.944242 6.44132 2.65385C8.36853 3.94415 9.26133 5.19767 9.41138 5.48972Z" fill="#E9CA07"/>
<path d="M12.8566 8.4298C12.8566 8.4298 11.361 7.06507 8.79101 6.71247C6.81003 6.44072 5.28711 6.69163 4.30936 7.13566C4.30936 7.13566 5.81777 8.64187 8.70895 8.84951C11.2389 9.03118 12.485 8.55258 12.8567 8.42979L12.8566 8.4298Z" fill="#E9CA07"/>
<path d="M15.9472 11.5765C15.9472 11.5765 14.5231 10.2674 11.953 9.91487C9.97206 9.64312 9.02083 9.92188 8.04307 10.3659C8.04307 10.3659 9.24778 11.8025 12.139 12.0101C14.6689 12.1918 15.5756 11.6993 15.9473 11.5765L15.9472 11.5765Z" fill="#E9CA07"/>
<path d="M18.9475 15.6814C18.9475 15.6814 17.6172 14.068 15.2116 13.2796C12.7467 12.4716 11.4807 12.8574 10.4205 13.1658C10.7586 13.5611 12.1422 15.2086 14.3854 15.7032C16.8301 16.2422 18.5545 15.7533 18.9475 15.6814Z" fill="#E9CA07"/>
<path d="M20.7283 19.3269C20.7283 19.3269 19.5494 17.6435 17.2225 16.7229C14.838 15.7796 13.5399 16.0938 12.4541 16.3424C12.755 16.7554 13.9838 18.4759 16.1759 19.0943C18.565 19.7682 20.3298 19.3767 20.7283 19.3269Z" fill="#E9CA07"/>
<path d="M21.6635 23.6595C20.6432 22.6401 20.0886 21.5441 18.5189 20.4534C16.5851 19.1095 14.9257 19.538 13.7995 19.6247C14.3539 20.4363 15.1863 21.7201 16.9066 22.6873C18.9671 23.8458 21.2599 23.6507 21.6635 23.6595V23.6595Z" fill="#E9CA07"/>
<path d="M21.5369 27.6515C20.6695 26.5495 20.2578 25.6905 18.8546 24.4697C17.1258 22.9657 15.4868 23.2327 14.3552 23.2208C14.7896 24.0756 15.5218 25.3543 17.0925 26.4655C18.9737 27.7964 21.1373 27.6075 21.5369 27.6515Z" fill="#E9CA07"/>
<path d="M20.4213 30.8343C19.1162 29.264 19.2809 28.9086 18.0036 27.6065C16.6317 26.2082 14.8989 26.2466 13.7723 26.1639C14.1173 27.0431 14.6329 28.2324 16.0953 29.43C17.6549 30.7071 19.277 30.5427 20.4213 30.8343H20.4213Z" fill="#E9CA07"/>
<path d="M18.277 33.9533C17.4543 32.564 17.5963 31.6964 16.8419 30.7117C15.608 29.101 14.3983 29.0314 13.2717 28.9488C14.1703 30.9555 13.9623 30.9648 14.9516 32.187C15.9142 33.3764 17.2222 33.5365 18.277 33.9534V33.9533Z" fill="#E9CA07"/>
<path d="M15.6919 36.5762C15.223 35.0903 15.6991 34.6356 15.1986 33.5569C14.38 31.7928 13.2093 31.5454 12.1234 31.2973C12.2483 32.4816 12.0598 33.2329 12.9114 34.5165C13.5129 35.423 14.7579 36.0106 15.6919 36.5762Z" fill="#E9CA07"/>
<path d="M10.4817 33.659C10.4817 33.659 9.54127 35.074 9.85366 36.714C10.2962 39.0376 11.8895 39.3858 11.8895 39.3858C11.8895 39.3858 12.7969 38.3296 12.7047 36.1867C12.6062 33.8976 10.4817 33.659 10.4817 33.659Z" fill="#E9CA07"/>
<path d="M7.08734 36.0261C7.08734 36.0261 6.14623 37.4587 6.35209 39.1089C6.61601 41.2238 8.10203 41.7529 8.10203 41.7529C8.10203 41.7529 9.03812 40.5723 9.07802 38.7905C9.13889 36.0698 7.08727 36.0261 7.08727 36.0261L7.08734 36.0261Z" fill="#E9CA07"/>
</g>
<defs>
<clipPath id="clip0_1_460">
<rect width="30" height="45" fill="white" transform="matrix(-1 0 0 1 30 0)"/>
</clipPath>
</defs>
</svg>
