<svg width="30" height="45" viewBox="0 0 30 45" fill="none" xmlns="http://www.w3.org/2000/svg">
<g clip-path="url(#clip0_1_422)">
<path d="M23.6612 3.49908C22.3681 4.17599 20.939 5.01423 19.7872 5.94917C17.7436 7.608 15.7169 9.47811 13.9749 11.3493C12.7982 12.6133 11.2714 14.5315 10.4373 15.9424C9.32725 17.8201 8.66975 19.1356 8.0605 21.1986C7.20223 24.105 7.32058 27.0877 8.1923 29.8997C9.47482 34.0366 13.5795 37.498 17.6812 40.3077C20.8901 42.5056 25.2042 43.9435 28.9947 44.9997L29.3863 44.1931C25.6305 43.1471 21.6497 41.75 18.5745 39.641C14.6185 36.9278 10.9645 33.619 9.38832 29.6763C8.42832 27.2762 8.20548 24.6429 8.70918 22.0928C9.15044 19.8589 10.2597 17.6201 11.3404 15.5846C12.2288 13.9112 13.2646 12.6077 14.5281 11.2347C16.1301 9.49388 17.8905 7.79618 19.7618 6.24602C20.9732 5.2426 22.5932 4.33671 23.8944 3.65562L23.6612 3.49908Z" fill="#E9CA07"/>
<path d="M22.0184 42.5344C22.0184 42.5344 19.356 41.8784 17.2432 42.0716C13.8888 42.3784 13.5796 44.0014 13.5796 44.0014C13.5796 44.0014 14.9253 44.6525 17.8116 44.4051C21.1929 44.1152 22.0183 42.5344 22.0183 42.5344L22.0184 42.5344Z" fill="#E9CA07"/>
<path d="M17.4845 40.1106C17.4845 40.1106 15.2408 39.2812 13.1135 39.2935C9.43069 39.3147 9.2099 40.8393 9.2099 40.8393C9.2099 40.8393 10.5429 41.5888 13.4925 41.558C16.8939 41.5225 17.4845 40.1106 17.4845 40.1106Z" fill="#E9CA07"/>
<path d="M14.1305 37.5616C14.1305 37.5616 11.997 36.1044 9.93348 35.7014C6.36103 35.0037 5.17776 36.6238 5.17776 36.6238C5.17776 36.6238 6.50571 37.8655 9.37128 38.4108C12.6758 39.0397 14.1305 37.5616 14.1305 37.5616Z" fill="#E9CA07"/>
<path d="M10.3429 33.6352C10.3429 33.6352 8.51841 32.1363 6.02085 31.5383C2.76144 30.7578 1.2294 32.2901 1.18469 32.3284C1.18469 32.3284 2.52027 33.6386 5.30675 34.2129C9.04432 34.9833 10.3429 33.6352 10.3429 33.6352Z" fill="#E9CA07"/>
<path d="M8.53884 30.5108C8.53884 30.5108 6.83964 28.4941 4.30522 27.5423C1.84324 26.6171 0.0446397 27.405 0 27.4359C0 27.4359 1.2647 29.2372 3.59148 30.1003C6.75283 31.2731 8.5392 30.5106 8.5392 30.5106L8.53884 30.5108Z" fill="#E9CA07"/>
<path d="M7.99141 27.7688C7.08447 27.1038 7.0169 25.2965 5.72058 23.8299C3.91215 21.7838 0.92907 21.9321 0.88443 21.9514C0.88443 21.9514 1.20378 24.5005 3.46525 26.0413C5.86865 27.6786 7.99134 27.769 7.99134 27.769L7.99141 27.7688Z" fill="#E9CA07"/>
<path d="M7.7408 23.4721C7.7408 23.4721 7.82884 21.2565 7.07917 19.5739C6.03335 17.2268 3.17846 16.7661 3.12887 16.7753C3.12887 16.7753 2.66589 19.285 4.32077 21.2387C6.07955 23.3149 7.74084 23.4721 7.74084 23.4721L7.7408 23.4721Z" fill="#E9CA07"/>
<path d="M8.94977 19.3197C8.94977 19.3197 9.51922 17.4597 9.23073 15.6928C8.79593 13.0299 6.13708 12.4662 6.08629 12.4701C6.08629 12.4701 5.17482 14.9365 6.47149 17.0481C7.84951 19.2922 8.94977 19.3197 8.94977 19.3197Z" fill="#E9CA07"/>
<path d="M11.2922 14.8615C11.2922 14.8615 12.2181 13.179 12.0995 11.4004C11.9348 8.93185 9.78864 7.88901 9.7377 7.88757C9.7377 7.88757 7.66836 9.34174 8.85687 12.4719C9.57782 14.3706 11.2922 14.8616 11.2922 14.8616L11.2922 14.8615Z" fill="#E9CA07"/>
<path d="M14.2721 11.196C14.2721 11.196 15.6481 9.54397 16.0288 7.78778C16.3862 6.13904 15.5279 4.34281 15.3363 4.17773C15.3363 4.17773 13.0972 4.94468 13.1811 7.88807C13.2375 9.86773 14.2721 11.196 14.2721 11.196Z" fill="#E9CA07"/>
<path d="M17.9329 7.659C17.9329 7.659 19.5736 6.2973 20.001 4.43541C20.3547 2.89248 19.9981 1.21579 19.6253 0.797302C19.6253 0.797302 17.4853 1.83359 17.3298 4.45432C17.2124 6.43233 17.7632 7.37378 17.9329 7.65922L17.9329 7.659Z" fill="#E9CA07"/>
<path d="M20.5886 5.48972C20.5886 5.48972 23.7155 5.57777 25.2695 4.87457C27.009 4.08745 28.7161 2.37894 28.8508 1.88018C28.8508 1.88018 26.1121 0.944242 23.5587 2.65385C21.6315 3.94415 20.7387 5.19767 20.5886 5.48972Z" fill="#E9CA07"/>
<path d="M17.1434 8.4298C17.1434 8.4298 18.639 7.06507 21.209 6.71247C23.19 6.44072 24.7129 6.69163 25.6906 7.13566C25.6906 7.13566 24.1822 8.64187 21.2911 8.84951C18.7611 9.03118 17.515 8.55258 17.1433 8.42979L17.1434 8.4298Z" fill="#E9CA07"/>
<path d="M14.0528 11.5765C14.0528 11.5765 15.4769 10.2674 18.047 9.91487C20.0279 9.64312 20.9792 9.92188 21.9569 10.3659C21.9569 10.3659 20.7522 11.8025 17.861 12.0101C15.3311 12.1918 14.4244 11.6993 14.0527 11.5765L14.0528 11.5765Z" fill="#E9CA07"/>
<path d="M11.0525 15.6814C11.0525 15.6814 12.3828 14.068 14.7884 13.2796C17.2533 12.4716 18.5193 12.8574 19.5795 13.1658C19.2414 13.5611 17.8578 15.2086 15.6146 15.7032C13.1699 16.2422 11.4455 15.7533 11.0525 15.6814Z" fill="#E9CA07"/>
<path d="M9.27167 19.3269C9.27167 19.3269 10.4506 17.6435 12.7775 16.7229C15.162 15.7796 16.4601 16.0938 17.5459 16.3424C17.245 16.7554 16.0162 18.4759 13.8241 19.0943C11.435 19.7682 9.67024 19.3767 9.27167 19.3269Z" fill="#E9CA07"/>
<path d="M8.33655 23.6595C9.35675 22.6401 9.91139 21.5441 11.4811 20.4534C13.4149 19.1095 15.0743 19.538 16.2005 19.6247C15.6461 20.4363 14.8137 21.7201 13.0934 22.6873C11.0329 23.8458 8.74007 23.6507 8.33655 23.6595V23.6595Z" fill="#E9CA07"/>
<path d="M8.46307 27.6515C9.33054 26.5495 9.7422 25.6905 11.1454 24.4697C12.8742 22.9657 14.5132 23.2327 15.6448 23.2208C15.2104 24.0756 14.4782 25.3543 12.9075 26.4655C11.0263 27.7964 8.86271 27.6075 8.46307 27.6515Z" fill="#E9CA07"/>
<path d="M9.57867 30.8343C10.8838 29.264 10.7191 28.9086 11.9964 27.6065C13.3683 26.2082 15.1011 26.2466 16.2277 26.1639C15.8827 27.0431 15.3671 28.2324 13.9047 29.43C12.3451 30.7071 10.723 30.5427 9.57875 30.8343H9.57867Z" fill="#E9CA07"/>
<path d="M11.723 33.9533C12.5457 32.564 12.4037 31.6964 13.1581 30.7117C14.392 29.101 15.6017 29.0314 16.7283 28.9488C15.8297 30.9555 16.0377 30.9648 15.0484 32.187C14.0858 33.3764 12.7778 33.5365 11.723 33.9534V33.9533Z" fill="#E9CA07"/>
<path d="M14.3081 36.5762C14.777 35.0903 14.3009 34.6356 14.8014 33.5569C15.62 31.7928 16.7907 31.5454 17.8766 31.2973C17.7517 32.4816 17.9402 33.2329 17.0886 34.5165C16.4871 35.423 15.2421 36.0106 14.3081 36.5762Z" fill="#E9CA07"/>
<path d="M19.5183 33.659C19.5183 33.659 20.4587 35.074 20.1463 36.714C19.7038 39.0376 18.1105 39.3858 18.1105 39.3858C18.1105 39.3858 17.2031 38.3296 17.2953 36.1867C17.3938 33.8976 19.5183 33.659 19.5183 33.659Z" fill="#E9CA07"/>
<path d="M22.9127 36.0261C22.9127 36.0261 23.8538 37.4587 23.6479 39.1089C23.384 41.2238 21.898 41.7529 21.898 41.7529C21.898 41.7529 20.9619 40.5723 20.922 38.7905C20.8611 36.0698 22.9127 36.0261 22.9127 36.0261L22.9127 36.0261Z" fill="#E9CA07"/>
</g>
<defs>
<clipPath id="clip0_1_422">
<rect width="30" height="45" fill="white"/>
</clipPath>
</defs>
</svg>
