<svg width="10" height="9" viewBox="0 0 10 9" fill="none" xmlns="http://www.w3.org/2000/svg">
<path d="M5.12711 0.173527C5.04548 0.19624 4.9816 0.241667 4.9383 0.306257C4.92482 0.32684 4.72253 0.733548 4.48759 1.20982C4.25336 1.68608 3.97725 2.24681 3.87433 2.45549L3.68695 2.83523L3.5308 2.85794C0.924459 3.24052 0.928008 3.23981 0.888969 3.25329C0.817991 3.27813 0.747722 3.3406 0.712942 3.40873C0.658999 3.51378 0.663967 3.62806 0.725719 3.73098C0.742044 3.75724 1.0437 4.05535 1.75491 4.74597C2.65634 5.62114 2.76139 5.72548 2.75784 5.7418C2.75642 5.75174 2.73016 5.90009 2.70106 6.07186C2.67124 6.24362 2.62227 6.52967 2.59104 6.70711C2.56052 6.88456 2.50302 7.21674 2.46328 7.44529C2.42353 7.67384 2.36746 7.99751 2.33835 8.16573C2.27447 8.52914 2.27305 8.55753 2.31706 8.64838C2.38946 8.8017 2.57116 8.87551 2.72448 8.81376C2.74648 8.80453 3.31786 8.50713 3.99358 8.15295L5.22222 7.50988L5.79289 7.80799C6.10661 7.97195 6.66095 8.26226 7.02366 8.45177C7.38707 8.64199 7.70008 8.80311 7.71925 8.8095C7.76964 8.82725 7.86475 8.82654 7.91799 8.80808C7.97832 8.7875 8.01452 8.76408 8.05569 8.71865C8.11389 8.65477 8.14157 8.58521 8.14157 8.50146C8.14157 8.47874 8.11247 8.2942 8.07769 8.0912C7.97974 7.52692 7.89244 7.02226 7.81436 6.56871C7.77461 6.34228 7.72635 6.0605 7.70576 5.94267L7.66885 5.72761L8.67817 4.73959C9.36311 4.06955 9.69458 3.74021 9.70949 3.71607C9.74001 3.66568 9.7535 3.6238 9.75775 3.56631C9.76911 3.41867 9.66832 3.27317 9.52778 3.23413C9.50507 3.22774 9.25877 3.19083 8.98125 3.15108C8.70301 3.11204 8.24733 3.04816 7.9698 3.00913C7.69157 2.96938 7.35371 2.92182 7.21885 2.90266C7.08399 2.8842 6.92145 2.86149 6.85686 2.85226C6.79227 2.84374 6.73619 2.8331 6.73122 2.82884C6.72697 2.82458 6.44802 2.26172 6.11158 1.5789C5.77585 0.89538 5.4891 0.319743 5.47419 0.29845C5.44296 0.252314 5.38121 0.205467 5.32514 0.184174C5.27261 0.163589 5.17821 0.158622 5.12711 0.173527Z" fill="white"/>
</svg>
